<svg xmlns="http://www.w3.org/2000/svg" xmlns:xlink="http://www.w3.org/1999/xlink" width="323" height="206" viewBox="0 0 323 206">
  <defs>
    <clipPath id="clip-path">
      <rect id="Rectangle_114" data-name="Rectangle 114" width="323" height="206" transform="translate(-45 4152)" fill="#fff" stroke="#8ab8a8" stroke-width="1"/>
    </clipPath>
    <clipPath id="clip-path-2">
      <path id="Path_36" data-name="Path 36" d="M183.244,228.266a21.319,21.319,0,0,0-12.548-8.848c-2.057-.532-4.124-1.034-6.2-1.468a14.673,14.673,0,0,1-8.04-4.4c-1-1.079-1.985-2.174-2.876-3.339-1.393-1.818-2.651-3.74-4.057-5.545a47.447,47.447,0,0,0-3.836-4.458,20.222,20.222,0,0,0-10.464-5.573c-2.8-.563-5.648-.932-8.471-1.4-.674-.111-1.34-.258-2.011-.388a3.014,3.014,0,0,1,1.611-.651c4.614-.653,9.225-1.317,13.844-1.935,1.781-.238,3.574-.4,5.367-.538a54.194,54.194,0,0,1,23.843,3.461,30.074,30.074,0,0,1,7.108,3.82,22.761,22.761,0,0,1,5.573,5.471,4.194,4.194,0,0,1,.815,2.508c-.043,2.207.03,4.416,0,6.623a77.18,77.18,0,0,0,1.3,15.864c.1.533.123,1.082.18,1.622l-.437.161c-.234-.33-.47-.658-.7-.99m2.859-2.225a27.032,27.032,0,0,1-.153-11.912,35.958,35.958,0,0,1,4.884-12.235,78.3,78.3,0,0,1,5.763-7.306c3.9-4.451,8.638-7.984,13.157-11.757a87.139,87.139,0,0,0,6.551-5.907,23.769,23.769,0,0,0,6.127-9.641,5.913,5.913,0,0,1,.612-1.012c.924,1.894,1.777,3.558,2.556,5.257a35.245,35.245,0,0,1,3.25,12.516,22.917,22.917,0,0,1-.148,4.154,6.287,6.287,0,0,1-2.756,4.454,16.357,16.357,0,0,1-5.8,2.548c-2.539.623-5.113,1.1-7.662,1.694-2.069.48-4.15.935-6.174,1.568a21.066,21.066,0,0,0-9.371,6.044c-5.377,5.881-9.074,12.573-10.055,20.6a6.138,6.138,0,0,1-.191.959c-.035.121-.182.209-.279.312-.111-.116-.283-.21-.308-.333M115,165.409c6.215-1,12.4-2.169,18.593-3.312a125.218,125.218,0,0,1,13.852-1.853,51.5,51.5,0,0,1,17.258,1.751,26.761,26.761,0,0,1,7.217,3.038c4.784,2.984,8.006,7,9.1,12.75a122.522,122.522,0,0,1,1.788,22.47,3.224,3.224,0,0,1-.305.823c-.387-.356-.687-.594-.941-.873a30.019,30.019,0,0,0-11.452-7.8,51.752,51.752,0,0,0-19.891-3.787c-3.346.065-6.7.272-10.029.663-5.358.63-10.693,1.469-16.037,2.215a40.448,40.448,0,0,1-8.811.378,81.246,81.246,0,0,1-12.386-1.756A36.184,36.184,0,0,1,80.716,175.1a46.094,46.094,0,0,1-5.439-11.767,1.928,1.928,0,0,1,.02-.565,5.127,5.127,0,0,1,.928.258,24.294,24.294,0,0,0,5.834,1.849A82.427,82.427,0,0,0,95.684,166.6q1.909.082,3.811.081A97.811,97.811,0,0,0,115,165.409m70.113,45.826c-.035-.459-.1-.916-.1-1.375-.022-2.209.026-4.42-.059-6.626a10.921,10.921,0,0,1,.955-4.763,36.657,36.657,0,0,1,5.912-9.556,146.147,146.147,0,0,1,10.624-10.526A86.273,86.273,0,0,0,212.137,168a29.776,29.776,0,0,0,5.379-10.659,13.432,13.432,0,0,1,.531-1.371c.384.82.653,1.4.924,1.975.763,1.629,1.457,3.293,2.31,4.874a4.51,4.51,0,0,1,.447,3.3,16,16,0,0,1-2.105,4.945,33.052,33.052,0,0,1-6.323,7.459q-4.525,3.958-9.238,7.7a76.5,76.5,0,0,0-9.872,9.528,37.62,37.62,0,0,0-8.3,14.592,8.833,8.833,0,0,1-.36.907l-.41-.017m-103.99-47.6a17.98,17.98,0,0,1-5.057-1.844,4.7,4.7,0,0,1-2.348-2.974,69.255,69.255,0,0,1-2.062-10.839c-.062-.556-.085-1.117-.14-1.86.4.04.494.022.546.059.264.19.521.39.774.593a33.379,33.379,0,0,0,13.639,6.461,67.15,67.15,0,0,0,10.435,1.556,102.4,102.4,0,0,0,14.723.09c6.363-.474,12.716-1.1,19.077-1.6,4.078-.326,8.157-.648,12.242-.816a61.159,61.159,0,0,1,14.166,1.2,52.611,52.611,0,0,1,15.82,5.857,7.514,7.514,0,0,1,3.363,3.757c.6,1.432,1.238,2.853,1.809,4.3a8.376,8.376,0,0,1,.215,1.659,25.743,25.743,0,0,0-13.324-8.186,51.431,51.431,0,0,0-17.5-1.8,108.108,108.108,0,0,0-12.168,1.533c-5.225.982-10.459,1.925-15.689,2.878a120.441,120.441,0,0,1-18.531,1.991q-1.008.024-2.015.025a80.777,80.777,0,0,1-17.969-2.035m15.692-9.861a63.692,63.692,0,0,1-10.9-1.713,33.573,33.573,0,0,1-12.508-6.029,6.393,6.393,0,0,1-2.632-4.46,31.941,31.941,0,0,0-6.017-14.594,54.387,54.387,0,0,0-6.083-7.049,3.276,3.276,0,0,1-1.215-1.867c.248.1.478.178.694.281A69.457,69.457,0,0,0,95.682,124.6c4.726-.47,9.383-1.349,14.048-2.213,3.695-.684,7.409-1.29,11.135-1.777a34.66,34.66,0,0,1,9.058.114,13.023,13.023,0,0,1,5.092,1.662c3.719,2.224,7.534,4.3,11.158,6.663a84.727,84.727,0,0,1,25.76,26.226c.556.888,1.017,1.835,1.614,2.923a2.957,2.957,0,0,1-.649.059c-.3-.124-.606-.25-.893-.4a58.023,58.023,0,0,0-26.715-6.416,130.589,130.589,0,0,0-14.692.812c-6.267.611-12.54,1.164-18.82,1.624-2.158.158-4.319.23-6.481.23-2.827,0-5.654-.122-8.479-.328m88.115,42.84c-.058-2.125-.258-4.262-.106-6.373a59.3,59.3,0,0,1,3.343-16.058,97.877,97.877,0,0,1,8.74-18.357c2.071-3.334,4.138-6.677,6.021-10.117,6.1-11.138,8.889-22.982,7.338-35.707a9.021,9.021,0,0,1,.007-1.146c.319.082.516.072.595.164a31.179,31.179,0,0,1,4.875,7.334,35.569,35.569,0,0,1,2.788,20.377c-.306,2.1-.753,4.189-1.1,6.289a30.783,30.783,0,0,0-.3,8.8,11.147,11.147,0,0,1-.081,2.921,27.487,27.487,0,0,1-5.534,12.424,66.99,66.99,0,0,1-7.547,8.37c-3.243,3.118-6.551,6.167-9.754,9.326a39.4,39.4,0,0,0-8.18,10.952c-.2.415-.458.8-.712,1.238-.211-.225-.393-.329-.4-.438m-.282-15.733c-.04-.388-.11-.776-.113-1.166a27.755,27.755,0,0,1,1.27-8.467,91.7,91.7,0,0,1,6.612-15.835c2.844-5.343,5.635-10.719,8.29-16.157a55.957,55.957,0,0,0,4.481-12.974,40.638,40.638,0,0,0-1.179-22.274c-.177-.5-.324-1.021-.58-1.834a5.875,5.875,0,0,1,1.1.531c.866.749,1.655,1.594,2.562,2.287a4.881,4.881,0,0,1,1.965,3.53c.081.731.233,1.455.309,2.188a55.139,55.139,0,0,1-.957,17.827,61.892,61.892,0,0,1-6.577,17.132c-1.935,3.415-4.014,6.75-6.047,10.109a90.935,90.935,0,0,0-10.347,24.049c-.1.384-.243.758-.367,1.137l-.42-.083m-110.21-58.2c-11.385-2.317-21.658-6.8-29.877-15.29a36.8,36.8,0,0,1-3.215-3.7,11.53,11.53,0,0,1-2.4-5.1c.893.688,1.387,1.1,1.911,1.468a58.65,58.65,0,0,0,5.236,3.619,73.633,73.633,0,0,0,40.778,9.518c3.1-.187,6.185-.591,9.268-.975a49.738,49.738,0,0,1,9.785-.492,13.774,13.774,0,0,1,3.124.551c3.9,1.233,7.788,2.505,11.653,3.843,2.084.721,4.118,1.6,6.166,2.42.324.13.82.209.613.787a2.16,2.16,0,0,1-.483.093,63.357,63.357,0,0,0-14.62,1.4c-2.888.561-5.776,1.132-8.672,1.655A88.993,88.993,0,0,1,87.882,124a67.157,67.157,0,0,1-13.439-1.316m112.322,35.5c1.28-3.184,2.723-6.3,4.1-9.451,1.765-4.046,3.62-8.056,5.28-12.145a56.555,56.555,0,0,0,3.715-13.205c1.387-9.659-.078-18.742-5.675-26.945-.149-.219-.528-.461-.089-.906a7.485,7.485,0,0,1,1.04.45c1.392.855,2.753,1.764,4.155,2.6a7.563,7.563,0,0,1,3.132,3.956,38.8,38.8,0,0,1,2.719,12.155,45.133,45.133,0,0,1-2.6,17.367,95.876,95.876,0,0,1-5.716,13.019c-1.895,3.623-3.842,7.217-5.773,10.819a81.979,81.979,0,0,0-6.879,17.551c-.1.378-.212.753-.319,1.13a41.563,41.563,0,0,1,2.914-16.4m-5.039,13.625c-.844-2.388-1.6-4.813-2.557-7.155a80.857,80.857,0,0,0-7.837-14.14,10.068,10.068,0,0,1-1.509-3.573,42.672,42.672,0,0,1-.91-11.216q.191-3.676.476-7.348a112.476,112.476,0,0,0-.067-20.338,52.2,52.2,0,0,0-3.682-15.446,7.559,7.559,0,0,1-.308-1.345,2.422,2.422,0,0,1,.595-.164c4.575.216,9.159.326,13.721.71,2.923.246,5.812.892,8.714,1.372a6.842,6.842,0,0,1,4.531,3.064,34.472,34.472,0,0,1,6.174,16.084,43.215,43.215,0,0,1-1.876,18.17,130.491,130.491,0,0,1-7.064,17.5c-1.388,2.959-2.723,5.947-3.974,8.969a48.345,48.345,0,0,0-3.377,13.777c-.073.726-.186,1.446-.28,2.169l-.394.023c-.124-.371-.245-.746-.375-1.115M46.8,102.949a45.3,45.3,0,0,1-7.552-5.436,3.388,3.388,0,0,1-1.291-2.277c-.173-1.463-.406-2.917-.573-4.379a3.368,3.368,0,0,1,.23-.973c1.822,1.673,3.413,3.318,5.187,4.733,10.088,8.049,21.508,12.666,34.493,13.065,1.965.061,3.933.053,5.9.044,1.879-.009,3.758-.017,5.635.034,2.776.078,5.551.326,8.317.59a11.75,11.75,0,0,1,5.373,2.168c-2.514.287-5.027.583-7.543.861-2.438.27-4.873.595-7.319.767q-2.619.184-5.195.184A73.624,73.624,0,0,1,46.8,102.949m116.545,37.79a4.655,4.655,0,0,1-1.433-3.247c-.058-1.306-.234-2.606-.366-3.908-.879-8.706-1.711-17.417-2.659-26.114a60.345,60.345,0,0,0-5.2-19.836,2.694,2.694,0,0,1-.064-.886,51.454,51.454,0,0,0,4.874,2.64,56.178,56.178,0,0,0,5.421,1.67,11.836,11.836,0,0,1,.548,1.054,51.769,51.769,0,0,1,3.311,11.775,98.694,98.694,0,0,1,.832,21.043c-.213,3.348-.474,6.692-.666,10.04a42.924,42.924,0,0,0,.451,9.784,11,11,0,0,1,.079,1.141l-.417.125c-1.563-1.769-3.061-3.6-4.712-5.282M91.933,106.791q-6.867-.02-13.734-.065a53.811,53.811,0,0,1-22.081-5.031A54.525,54.525,0,0,1,37.924,88.633a5.922,5.922,0,0,1-1.453-2.505A25.086,25.086,0,0,0,33.422,79.2c-.059-.1.018-.281.033-.422.066-.039.146-.125.194-.11a7.589,7.589,0,0,1,1.124.416,63.256,63.256,0,0,0,14.214,5.3c2.146.524,4.31.977,6.427,1.6,2.742.809,5.484,1.646,8.151,2.669a36.693,36.693,0,0,1,11.048,6.708,62.1,62.1,0,0,0,5.246,4.024,66.082,66.082,0,0,0,10.913,6.07,4.887,4.887,0,0,1,1.947,1.112,3.59,3.59,0,0,1-.786.224h0m67.255,29.043c-.646-2.618-1.42-5.216-1.887-7.866-.753-4.269-1.349-8.568-1.924-12.864a165.5,165.5,0,0,0-4.555-23.348,71.532,71.532,0,0,0-9.3-20.738c-.9-1.338-1.861-2.64-3.1-4.4a13.171,13.171,0,0,1,1.943,1.494,54.987,54.987,0,0,1,3.611,4.643c1.586,2.383,2.929,4.929,4.525,7.3a59.984,59.984,0,0,1,5.8,11.609,61.018,61.018,0,0,1,3.609,16c1,9.357,1.907,18.724,2.842,28.089.056.547.021,1.1.033,1.861a2.1,2.1,0,0,1-1.594-1.786m-91.652-46.5a59.9,59.9,0,0,0-13.151-4.662c-2.305-.553-4.615-1.1-6.9-1.722a55.462,55.462,0,0,1-15.07-6.407,17.025,17.025,0,0,1-2.663-2.13c-2.243-2.147-4.478-4.307-6.628-6.546-1.227-1.278-2.7-2.369-3.557-4.156a3.406,3.406,0,0,1,.535.326,66.246,66.246,0,0,0,17,12.312,94.635,94.635,0,0,0,17.452,6.474q3.786,1.043,7.569,2.087c2.509.687,4.736,1.787,6.123,4.134a4.158,4.158,0,0,1,.167.517,5.272,5.272,0,0,1-.876-.228m88.9,44.8c-2.132-1.652-4.182-3.421-6.385-4.973A114.237,114.237,0,0,0,128.061,116.8a5.9,5.9,0,0,1-3.627-3.689c-.5-1.468-1.011-2.94-1.37-4.445a53.479,53.479,0,0,1-1.239-11.2c-.092-3.845-.126-7.692-.234-11.537a46.444,46.444,0,0,0-1.135-9.489c-1.388-5.828-3.762-11.148-7.984-15.52-.333-.346-.637-.722-1.081-1.228.392-.214.525-.346.668-.358a50.919,50.919,0,0,1,11.511.163,26.491,26.491,0,0,1,7.763,2.212,10.536,10.536,0,0,1,2.65,1.723A38.14,38.14,0,0,1,137.3,67.04,65.824,65.824,0,0,1,149.46,90.663a159.858,159.858,0,0,1,4.97,25A156.058,156.058,0,0,0,157.5,133.8a6.374,6.374,0,0,1,.061.923,7.734,7.734,0,0,1-1.123-.595m-34.093-19.67c-2.953-.973-5.907-1.941-8.847-2.95-4.876-1.672-9.74-3.378-14.612-5.058a8.086,8.086,0,0,1-2.952-1.69A51.468,51.468,0,0,1,86.412,93.3a46.337,46.337,0,0,1-6.8-22.276c-.2-5.63.092-11.28-.824-17.414.817.566,1.234.812,1.6,1.117A20.469,20.469,0,0,0,90.1,59.162a40.393,40.393,0,0,0,6.336.652c3.6.055,7.2.026,10.788-.23a5.028,5.028,0,0,1,4.342,1.718,29.932,29.932,0,0,1,5.563,8.325,37.815,37.815,0,0,1,3.314,13.753c.183,3.429.174,6.869.312,10.3.141,3.513.274,7.028.563,10.531a31.471,31.471,0,0,0,2.255,9.513c.117.282.171.592.317,1.11-.635-.151-1.1-.227-1.541-.372M49.584,80.274c-2.5-.763-4.95-1.7-7.37-2.689A63.719,63.719,0,0,1,26.59,68.473a50.862,50.862,0,0,1-9.172-9.158A7.134,7.134,0,0,1,16.09,57a17.345,17.345,0,0,1-.076-8.966c.165.448.338.892.493,1.344A35.64,35.64,0,0,0,31.215,68.111a48.827,48.827,0,0,0,13.406,5.94c2.91.827,5.833,1.609,8.748,2.425a29.739,29.739,0,0,1,6.359,2.555,7.458,7.458,0,0,1,3.054,2.754c.326.565.752,1.071,1.092,1.629a6.141,6.141,0,0,1,.355,1.075c-5.088-1.455-9.888-2.764-14.645-4.215M89.679,102a33.815,33.815,0,0,1-8.192-10.313A48.9,48.9,0,0,1,75.969,74.5c-.518-3.887-.794-7.807-1.1-11.719-.363-4.566-.645-9.135-.955-13.705-.026-.374,0-.753,0-1.487a29.021,29.021,0,0,1,2,2.476,7.966,7.966,0,0,1,2.079,5.117q.3,3.666.445,7.344c.14,3.514.088,7.039.336,10.545.722,10.226,4.8,19.09,11.236,26.947,1.03,1.257,2.134,2.454,3.514,4.033A9.051,9.051,0,0,1,89.679,102M59,77.466a68.114,68.114,0,0,0-10.019-3.25c-2.907-.83-5.83-1.637-8.665-2.676A38.67,38.67,0,0,1,24.171,60.758a32.513,32.513,0,0,1-7.718-15.637,11.02,11.02,0,0,1-.021-4.143c.491-2.569.918-5.152,1.391-7.725.068-.365.024-.855.738-.936.253.309.571.661.846,1.042a29.751,29.751,0,0,0,4.853,5.172A63.956,63.956,0,0,0,46.907,50.912c.617.193,1.224.41,1.836.615,3.229,8.8,6.362,17.575,11.044,25.916-.341.013-.53.047-.657.047A.316.316,0,0,1,59,77.466M81.131,97.75A12.41,12.41,0,0,1,76.77,93.2a55.9,55.9,0,0,1-6.994-17.98C68.7,69.76,67.86,64.266,67.3,58.721q-.711-7.081-1.648-14.142a63,63,0,0,0-5.038-17.388c-.764-1.709-1.688-3.347-2.539-5.018l.263-.255c.76.728,1.54,1.436,2.279,2.186a45.389,45.389,0,0,1,7.243,10.164,40.79,40.79,0,0,1,5.209,16.49c.3,3.67.559,7.346.731,11.023a124.513,124.513,0,0,0,1.281,13.681A55.95,55.95,0,0,0,78.221,87.05a41.955,41.955,0,0,0,6.321,11.04,7.408,7.408,0,0,1,1.705,2.655,49.9,49.9,0,0,1-5.115-2.994M45.9,49.55A64,64,0,0,1,26.2,38.855a33.511,33.511,0,0,1-7.039-7.449,4.417,4.417,0,0,1-.828-2.962,23.639,23.639,0,0,0-.742-8.257,5.161,5.161,0,0,1,.082-1.291c1.135,1.8,2.023,3.256,2.964,4.682A67.323,67.323,0,0,0,29.643,35.16,55.654,55.654,0,0,0,46.709,46.87a7.572,7.572,0,0,1,.735.429l.8,2.879c-1.1-.292-1.734-.421-2.343-.628m-1.08-4.637A54.487,54.487,0,0,1,32.7,36.675,51.587,51.587,0,0,1,22.338,24.336c-3.016-4.969-6.552-9.569-9.8-14.372-.866-1.281-1.921-2.435-2.883-3.651-.223-.282-.418-.588-.645-.909.235-.105.317-.178.377-.163a5.507,5.507,0,0,1,.926.272,75.873,75.873,0,0,1,21.978,14.5,41.747,41.747,0,0,1,6.9,8.252A71.014,71.014,0,0,1,44.526,39a35.564,35.564,0,0,1,2.206,6.662c-.868-.34-1.4-.512-1.908-.752M73.3,91.288A74.1,74.1,0,0,1,59.351,72.12,139.234,139.234,0,0,1,52.478,55.6c-1.717-4.769-3.214-9.614-4.888-14.4a70.615,70.615,0,0,0-6.569-13.959c-3.322-5.36-7.87-9.585-12.755-13.474A78.209,78.209,0,0,0,14.347,5.079C13.8,4.807,13.07,4.736,12.8,3.852c.637.081,1.185.108,1.716.225,2.557.564,5.113,1.13,7.661,1.735a147.83,147.83,0,0,1,16.967,4.9,79.967,79.967,0,0,1,11.28,5.377,17.36,17.36,0,0,1,6.427,6.248,49.989,49.989,0,0,1,2.807,5.168,66.3,66.3,0,0,1,5.463,20.286c.483,4.143.916,8.291,1.339,12.441A151.22,151.22,0,0,0,68.827,75.5a52.309,52.309,0,0,0,3.981,12.342c.708,1.463,1.448,2.91,2.172,4.364a3.519,3.519,0,0,1-1.681-.919M0,.01c.8.7,1.147,1.032,1.521,1.327a47.036,47.036,0,0,1,11.1,12.677,23.475,23.475,0,0,1,3.571,15c-.224,2.114-.552,4.218-.884,6.32-.47,2.993-1.053,5.968-1.461,8.968-.285,2.105-.42,4.236-.514,6.36a22.254,22.254,0,0,0,7.2,17.609c2.756,2.679,5.5,5.381,8.136,8.174a23.815,23.815,0,0,1,6.453,13.509c.2,1.461.4,2.919.568,4.382a22.883,22.883,0,0,0,7.74,14.9q3.849,3.429,7.782,6.758a89.428,89.428,0,0,1,9.53,9.19,32.874,32.874,0,0,1,7.985,16.584c.318,1.938.594,3.885.778,5.839A71.13,71.13,0,0,0,77,172.886a35.966,35.966,0,0,0,14.067,14.707,38.079,38.079,0,0,0,13.756,5.03c3.8.609,7.624,1.04,11.441,1.517,4.468.557,8.944,1.054,13.409,1.629,1.7.219,3.4.536,5.079.893a19.355,19.355,0,0,1,11.408,7.157c1.524,1.925,2.876,3.985,4.4,5.912s3.067,3.838,4.748,5.617A16.248,16.248,0,0,0,164.053,220c2.24.468,4.472,1.006,6.678,1.618a19.66,19.66,0,0,1,11.678,9.167,40.782,40.782,0,0,1,5.975,18.754c.148,2.041.3,4.084.318,6.128a38.617,38.617,0,0,1-1.3,10.939c-.691,2.44-1.342,4.9-2.078,7.323a7.217,7.217,0,0,1-1.886,3.652.743.743,0,0,0-.05,1.1,1.529,1.529,0,0,0,.9.379h.036a.7.7,0,0,0,.122-.013,2.163,2.163,0,0,0,1.2-.725,6.451,6.451,0,0,0,1.027-1.936c1.148-3.754,2.4-7.488,3.3-11.3a42.722,42.722,0,0,0,.7-12.953c-.249-3.426-.646-6.841-.975-10.263-.291-3.014-.679-6.021-.84-9.042a42.628,42.628,0,0,1,1.43-13.132,21.854,21.854,0,0,1,3.07-6.925c1.435-2.086,2.944-4.125,4.5-6.125a18.679,18.679,0,0,1,9.908-6.462c2.039-.588,4.136-.982,6.208-1.46,2.47-.569,4.968-1.036,7.4-1.731a24.889,24.889,0,0,0,4.759-1.925,8.306,8.306,0,0,0,4.592-6.313,24.394,24.394,0,0,0,.194-5.131,39.068,39.068,0,0,0-4.239-14.769c-1.82-3.663-3.665-7.314-5.452-10.994a21.736,21.736,0,0,1-1.913-13.155c.356-2.264.783-4.517,1.17-6.775a38.635,38.635,0,0,0-1.178-18.207,33,33,0,0,0-6.806-12.106,68.886,68.886,0,0,0-14.3-12.261A33.37,33.37,0,0,0,185,90.3a100.488,100.488,0,0,0-11.492-1.012c-2.045-.084-4.094-.109-6.134-.262a44.47,44.47,0,0,1-5.111-.634,15.046,15.046,0,0,1-9.043-5.484,66.3,66.3,0,0,1-6.116-9.189A33.854,33.854,0,0,0,137.39,62.8,29.462,29.462,0,0,0,125.3,57.655a48.906,48.906,0,0,0-11.746-.543c-3.758.217-7.516.468-11.275.625-2.042.085-4.093.057-6.137-.011a42.379,42.379,0,0,1-4.4-.394c-7.391-1.024-12.606-5.2-16.121-11.556-1.656-3-2.893-6.229-4.325-9.351a47.766,47.766,0,0,0-19.2-21.736A71.869,71.869,0,0,0,38.814,8.376a211.259,211.259,0,0,0-28.775-7.32A46.478,46.478,0,0,0,1.767,0L1.482,0C1.152,0,.743.006,0,.01" fill="8ab8a8"/>
    </clipPath>
  </defs>
  <g id="leaf2" transform="translate(45 -4152)" clip-path="url(#clip-path)">
    <g id="Group_71" data-name="Group 71" transform="translate(274.876 4160.716) rotate(103)" opacity="0.24">
      <g id="Group_71-2" data-name="Group 71" clip-path="url(#clip-path-2)">
        <rect id="Rectangle_87" data-name="Rectangle 87" width="237.908" height="284.73" transform="translate(-6.946 0.173) rotate(-1.427)" fill="#8ab8a8"/>
      </g>
    </g>
  </g>
</svg>