<svg xmlns="http://www.w3.org/2000/svg" xmlns:xlink="http://www.w3.org/1999/xlink" width="442" height="239" viewBox="0 0 442 239">
  <defs>
    <clipPath id="clip-path">
      <rect id="Rectangle_115" data-name="Rectangle 115" width="442" height="239" transform="translate(1594 3537)" fill="#fff" stroke="#8ab8a8" stroke-width="1"/>
    </clipPath>
    <clipPath id="clip-path-2">
      <rect id="Rectangle_85" data-name="Rectangle 85" width="251.977" height="426.757" fill="#8ab8a8"/>
    </clipPath>
  </defs>
  <g id="leaf1" transform="translate(-1594 -3537)" clip-path="url(#clip-path)">
    <g id="Group_70" data-name="Group 70" transform="translate(1594.003 3615.189) rotate(-50)" opacity="0.24">
      <g id="Group_69" data-name="Group 69" clip-path="url(#clip-path-2)">
        <path id="Path_35" data-name="Path 35" d="M14.514,31.22a105.584,105.584,0,0,0,9.715,17.23,23.535,23.535,0,0,0,16.742,10.17,83.354,83.354,0,0,0,10.794.84c9.464-.007,18.93-.186,28.393-.4,9.966-.226,19.926-.448,29.878.412a87.452,87.452,0,0,1,29.219,7.388A57.224,57.224,0,0,1,154.979,77.5a73.581,73.581,0,0,1,15.844,22.928c3.083,6.676,6.068,13.4,9.263,20.022a43.277,43.277,0,0,0,13.171,16.026c2.893,2.168,5.822,4.288,8.754,6.4a223.179,223.179,0,0,1,21.867,17.532,89.385,89.385,0,0,1,25.4,41.583,65.877,65.877,0,0,1-.52,39.034,116.055,116.055,0,0,1-8.859,20.178,246.971,246.971,0,0,1-14.525,22.663c-9.368,13.478-16.814,27.987-23.452,42.943a125.733,125.733,0,0,0-6.857,20.156c-1.744,6.883-3.12,13.859-4.779,20.766A221.065,221.065,0,0,1,176.166,408.3c-2.39,5.208-5.142,10.252-7.8,15.333a14.463,14.463,0,0,1-2.216,2.949,1.477,1.477,0,0,1-1.351.022,1.747,1.747,0,0,1-.774-1.143,2.41,2.41,0,0,1,.327-1.406c.532-.984,1.2-1.895,1.74-2.875A222.972,222.972,0,0,0,189.631,356a133.523,133.523,0,0,0,1.678-42.78c-1.093-8.65-3.461-16.8-8.1-24.269-4.83-7.778-11.26-13.616-19.908-16.785a79.026,79.026,0,0,0-9.314-2.73c-4.64-1.077-9.386-1.066-14.132-1-7.6.1-15.2.354-22.788.12-25.516-.786-47.819-10.015-67.36-26.208a69.106,69.106,0,0,1-12.862-14,42.086,42.086,0,0,1-7.283-17.055,38.863,38.863,0,0,1,2.62-21.612,66.947,66.947,0,0,1,6.969-12.36c2.479-3.589,5.091-7.089,7.511-10.719a55.164,55.164,0,0,0,4.343-7.407c3.57-7.749,3.217-15.472-.662-23.052A38.87,38.87,0,0,0,39.889,123.6c-2.909-2.347-5.983-4.49-8.925-6.8-2.352-1.842-4.734-3.673-6.9-5.724a20.971,20.971,0,0,1-6.625-16.112,43.432,43.432,0,0,1,.374-4.467c.17-1.485.393-2.966.627-4.443a26.881,26.881,0,0,0-4.5-19.923c-1.952-2.891-3.924-5.771-5.826-8.7a46.543,46.543,0,0,1-7.8-21.589A81.418,81.418,0,0,1,4.787.894C4.863.682,5.113.531,5.613,0a104.9,104.9,0,0,0,8.9,31.221M186.77,210.463c3.284-10.828,6.6-21.649,9.726-32.523a72.5,72.5,0,0,0,2.694-17.287,58,58,0,0,0-1.855-15.875c-.266-1.107-.647-2.154-2.228-2.362a6.763,6.763,0,0,0-.039,1.781c2.278,9.047,1.406,18.023-.574,26.97-.51,2.307-1.155,4.583-1.722,6.878q-1.967,7.967-3.916,15.941a136.058,136.058,0,0,0-3.1,17.236c.051.208.1.418.157.622a1.42,1.42,0,0,0,.149.262c.052-.163.194-.375.139-.478-.1-.175-.317-.281-.485-.416.335-.255.956-.422,1.055-.749M27.456,109.159l-.387.254c.194.09.387.179.582.268a22.971,22.971,0,0,0,2.341,2.35c3.465,2.65,6.9,5.347,10.512,7.792a35.478,35.478,0,0,0,6.922,3.644A54.607,54.607,0,0,0,77.133,126.8c6.38-1.106,12.8-2,19.194-3.006a54.453,54.453,0,0,1,25.472,2,7.571,7.571,0,0,0,1.08.236c.09.014.2-.081.3-.127.022-.113.1-.285.058-.331-7.421-7.387-16.133-11.562-26.835-10.708a57.67,57.67,0,0,0-11.337,2.285c-3.113.895-6.232,1.8-9.4,2.465a46.723,46.723,0,0,1-15.253.375,88.264,88.264,0,0,1-29.84-9.285c-.911-.466-1.707-1.553-2.984-.917-.043-.21-.087-.418-.13-.626m20.4,65.872c-3.349,15.7,2.122,35.209,15.6,46.765a74.546,74.546,0,0,0,20.774,12.4,95.921,95.921,0,0,0,24.5,6.551c5.689.694,11.4,1.253,17.081,1.988,5.56.718,11.123,1.459,16.648,2.407a85.446,85.446,0,0,1,27.4,9.611,71.984,71.984,0,0,1,13.328,9.589,45.319,45.319,0,0,1,8.927,11.515,6.823,6.823,0,0,0,.463-1.644,20.773,20.773,0,0,0-4.9-12.257,81.281,81.281,0,0,0-34.1-25.387,61.463,61.463,0,0,0-19.658-4.217c-4.975-.277-9.959-.449-14.923-.865A118.622,118.622,0,0,1,95.5,227.231a74.335,74.335,0,0,1-33.066-20.337,48.643,48.643,0,0,1-9.9-14.852,46.272,46.272,0,0,1-3.483-13.721c-.139-1.484-.37-2.959-.558-4.437a6.246,6.246,0,0,0,.146-.647c0-.036-.149-.094-.23-.142l.186.826c-.241.371-.643.706-.729,1.109M194.665,308.063c0-3.486-.072-6.971-.125-10.456a12.117,12.117,0,0,0-1.347-5.016,58.92,58.92,0,0,0-32.024-30.378,69.28,69.28,0,0,0-19.541-4.792c-5.947-.576-11.913-.968-17.877-1.361a203.284,203.284,0,0,1-23.766-2.5A85.043,85.043,0,0,1,59.47,234.65a60.092,60.092,0,0,1-12.131-13.616,48.644,48.644,0,0,1-7.617-25.083c-.094-3.6.216-7.211.339-10.817.028-.818.541-1.652-.029-2.441-.256.1-.565.116-.666.27-5.044,7.734-7.814,16.082-6.969,25.444a36.844,36.844,0,0,0,6.514,17.3,64.152,64.152,0,0,0,11.613,13.11c19.62,16.834,42.247,26.074,68.211,26.619,7.091.148,14.191-.152,21.287-.168,3.233-.007,6.479.036,9.7.3a53.086,53.086,0,0,1,16.219,4.19,41.926,41.926,0,0,1,19.114,16.162,53.561,53.561,0,0,1,8.469,20.986c.159.982.407,1.948.614,2.922l.327.441c-.083-.057-.2-.1-.239-.175a.994.994,0,0,1-.036-.343,6.659,6.659,0,0,0,.477-1.692M50.329,168.692a48.974,48.974,0,0,0,.463,11.548A47.442,47.442,0,0,0,64.625,207a73.191,73.191,0,0,0,32.857,19.22,135.507,135.507,0,0,0,28.032,4.228c2.114.114,4.229.232,6.344.273,12.946.255,24.687,4.349,35.6,11.12A79.483,79.483,0,0,1,188.3,260.361c.609.775,1.267,1.511,1.863,2.217.774-.037.873-.5.787-1.011-1.048-6.264-2.006-12.546-3.229-18.777a19.04,19.04,0,0,0-2.286-5.478c-4.234-7.505-10.638-12.8-18.011-16.948a100.354,100.354,0,0,0-37.411-12.288c-6.925-.841-13.866-1.566-20.761-2.6-5.292-.789-10.552-1.844-15.775-3.013a46.939,46.939,0,0,1-19.6-9.691q-4.05-3.309-7.91-6.843a50.033,50.033,0,0,1-12.873-19.02c-.222-.568-.437-1.139-.826-2.151a4.527,4.527,0,0,0-1.933,3.93m6.488-16.355c2.588,14.408,10.788,24.669,23.509,31.421a71.766,71.766,0,0,0,11.41,4.618c9.892,3.227,20.135,4.571,30.488,5.2,3.727.227,7.462.364,11.183.688a80.768,80.768,0,0,1,30.364,8.623,69.869,69.869,0,0,1,13.611,9.158c.736.634,1.452,1.293,2.07,1.846.929-.279.812-.785.645-1.241-1.877-5.15-3.737-10.307-5.684-15.429a10.844,10.844,0,0,0-1.624-2.483,39.122,39.122,0,0,0-11.58-9.882,60.982,60.982,0,0,0-18.714-7.337c-5.233-1.113-10.528-1.948-15.811-2.794-7.746-1.24-15.522-2.3-23.26-3.584a108.358,108.358,0,0,1-18.8-4.844,80.2,80.2,0,0,1-15.112-7.315,43.139,43.139,0,0,1-11-9.453c-.357-.438-.78-.825-1.409-1.482a7.017,7.017,0,0,0-.291,4.287m143.012,171.3c4.968-10.745,9.965-21.484,16.364-31.475,4.365-6.817,8.925-13.509,13.418-20.244a145.41,145.41,0,0,0,13-23.514c3.753-8.789,6.2-17.87,6.2-27.51,0-10.8-2.824-20.914-7.333-30.63-.077-.167-.341-.25-.527-.376-.665.6-.426,1.375-.394,2.063.931,20.455-5.525,38.477-18,54.484-2.754,3.533-5.748,6.875-8.6,10.332-2.217,2.689-4.47,5.354-6.552,8.146a50.726,50.726,0,0,0-9.139,21.476,37.974,37.974,0,0,0-.6,7.8c.266,10.084.459,20.163-.072,30.244a31.106,31.106,0,0,0,.262,3.308c.91-1.888,1.456-2.985,1.972-4.1m-8.108-45.073a42.392,42.392,0,0,0-11.038-14.442,77.294,77.294,0,0,0-28.171-15.046,98.73,98.73,0,0,0-15.715-3.342c-7.908-1.037-15.822-2.039-23.752-2.871A106.671,106.671,0,0,1,76.9,232.579a66,66,0,0,1-15.377-10.526c-8.054-7.313-12.749-16.476-15.036-26.984a46.333,46.333,0,0,1-.52-17.83c.127-.736.218-1.48.281-2.224a2.174,2.174,0,0,0-.182-.695c-.594-.4-.871.1-1.182.443a11.416,11.416,0,0,0-2.581,5.732c-2.046,11.388-1.759,22.6,2.916,33.392A48.362,48.362,0,0,0,55.27,228.641a81.775,81.775,0,0,0,40.669,22.515,132.583,132.583,0,0,0,21.088,2.92c5.966.4,11.942.694,17.9,1.165,3.848.3,7.7.694,11.509,1.315a65.787,65.787,0,0,1,32.37,14.5,60.576,60.576,0,0,1,13.236,16.082c.313.534.638,1.062.971,1.583a6.693,6.693,0,0,0,.848.66,21.224,21.224,0,0,0-2.143-10.817M51.958,132.188a23.515,23.515,0,0,0,4.616,3.759A51.84,51.84,0,0,0,72.3,142.7a75.167,75.167,0,0,0,15.5,2.261q7.086.329,14.184.375a120.849,120.849,0,0,1,27.725,3.611,72.978,72.978,0,0,1,23.235,10c.4.265.834.483,1.222.7.831-.541.19-.916-.025-1.2-2.612-3.486-5.091-7.089-7.926-10.386-3.651-4.244-7.544-8.284-11.421-12.327a34.155,34.155,0,0,0-15.991-9.23,51.04,51.04,0,0,0-21.1-1.355c-5.787.851-11.588,1.653-17.339,2.716-10.634,1.963-21.065,1.623-31.281-2.166a13.051,13.051,0,0,0-1.431-.408c-.106-.025-.239.051-.758.177,1.776,2.4,3.251,4.706,5.055,6.719m130.655,88.938a11,11,0,0,0-2.712-4.416,46.6,46.6,0,0,0-8.73-7.571,76.421,76.421,0,0,0-36.507-13.2c-4.208-.429-8.445-.565-12.67-.831a129.417,129.417,0,0,1-31.577-5.491,63.019,63.019,0,0,1-11.7-4.916c-8.7-4.887-15.542-11.585-19.828-20.694-.793-1.684-1.293-3.5-1.959-5.247-.248-.649-.2-1.485-1.262-1.917-.88,1.135-1.124,2.628-1.794,3.893a3.135,3.135,0,0,0-.513,1.386,8.373,8.373,0,0,0,.4,2.536,47.3,47.3,0,0,0,8.348,14.923A77.971,77.971,0,0,0,81,195.858a41.546,41.546,0,0,0,9.551,4.217,95.877,95.877,0,0,0,15.316,3.364c7.276,1.009,14.561,1.983,21.863,2.787a105.894,105.894,0,0,1,39.045,12.029,53.155,53.155,0,0,1,17.219,14.093,5.272,5.272,0,0,0,.811.754,4.475,4.475,0,0,0,.9.247c-1.08-4.268-2.085-8.246-3.091-12.224M154.5,151.516c-2.088-7.381-2.617-14.937-2.652-22.566-.028-5.85-.131-11.705-.394-17.55A61.323,61.323,0,0,0,147.6,92.8a68.973,68.973,0,0,0-15.826-24.668,7.261,7.261,0,0,0-3.141-1.924,85.57,85.57,0,0,0-18.268-3.457c-.627,1.117.349,1.354.823,1.766a58.706,58.706,0,0,1,12.254,14,57.33,57.33,0,0,1,7.189,16.763c1.759,7.773,3.567,15.54,5.088,23.362a62.363,62.363,0,0,0,10.854,24.786c2.25,3.126,4.876,5.981,7.349,8.945.13.156.429.17.7.267a6.787,6.787,0,0,0-.123-1.118m22.291-24.345a55.023,55.023,0,0,1,.022,16c-.631,4.058-1.43,8.09-2.072,12.146-.8,5.038-1.739,10.068-2.19,15.141a80.035,80.035,0,0,0,.127,11.176,22.16,22.16,0,0,0,1.957,7.931,207.577,207.577,0,0,1,8.066,20.9c.211.654.539,1.269.96,2.242.346-.673.611-.958.633-1.262.582-7.989,2.567-15.716,4.4-23.467,1.091-4.6,2.427-9.151,3.465-13.765.927-4.124,1.733-8.286,2.347-12.468a52,52,0,0,0-1.311-19.631,5.046,5.046,0,0,0-1.867-3.109,47.827,47.827,0,0,1-13.954-16.8,14.6,14.6,0,0,0-1.266-1.783l-.462.142c.386,2.2.84,4.39,1.143,6.6M57.118,145.049a33.276,33.276,0,0,0,5.954,7.163A62.647,62.647,0,0,0,81.5,163.447,94.65,94.65,0,0,0,97.929,168.5c9.145,1.994,18.409,3.231,27.667,4.539,4.441.629,8.88,1.3,13.292,2.107a73.477,73.477,0,0,1,16.772,5.135,56.372,56.372,0,0,1,12.746,7.751c.64.523,1.322,1,1.928,1.448.8-.572.382-1.037.211-1.437-.39-.917-.957-1.772-1.255-2.714-1.029-3.25-3.261-5.532-5.845-7.563a90.861,90.861,0,0,0-27.177-14.692,122.513,122.513,0,0,0-25.58-5.318c-4.332-.5-8.676-.9-13.011-1.377a98.8,98.8,0,0,1-28.753-7.855,61.044,61.044,0,0,1-10.445-5.8c-.678-.47-1.4-.876-2.162-1.346-.5,1.544.145,2.609.8,3.677m46.6-33.725a206.724,206.724,0,0,0-21.4-11.431,11.448,11.448,0,0,0-4.68-1.1,39.948,39.948,0,0,0-10.35,1.16c-3.149.732-6.289,1.528-9.467,2.111a42.513,42.513,0,0,1-25.492-3.426,29.834,29.834,0,0,1-8.279-5.674c-.808-.76-1.593-1.544-2.383-2.314-.27.254-.558.393-.605.592a18.4,18.4,0,0,0,.469,9.931,6.863,6.863,0,0,0,2.11,2.988,37.5,37.5,0,0,0,5.751,4.112A83.756,83.756,0,0,0,61.906,118.6a45.448,45.448,0,0,0,17.732-1.5c3.455-1.03,6.971-1.855,10.463-2.76a35.723,35.723,0,0,1,14.806-.587c.481.077.969.119,1.453.178l.356-.556c-1-.688-1.975-1.408-3-2.056m93.073,161.319c2.511-9.4,7.133-17.784,12.528-25.769,2.649-3.919,5.524-7.687,8.354-11.48a111.744,111.744,0,0,0,9.8-15,65.763,65.763,0,0,0,7.187-38.346,18.444,18.444,0,0,0-6.33-12.166,11.737,11.737,0,0,0-.4,2.143,82.811,82.811,0,0,1-1.747,17.44A84.8,84.8,0,0,1,213.1,220.22c-1.8,2.687-3.869,5.2-5.692,7.872-2.594,3.807-5.169,7.632-7.577,11.556a46.711,46.711,0,0,0-5.211,13.163,21.156,21.156,0,0,0-.456,8.874c.669,3.912,1.069,7.87,1.681,12.553a10.185,10.185,0,0,0,.942-1.6M136.99,71.659a68.084,68.084,0,0,1,12.117,20.92,69.232,69.232,0,0,1,4.044,21.219c.179,5.1.193,10.213.222,15.32.04,6.745.35,13.463,2.107,20.018,1.355,5.063,2.9,10.053,5.954,14.438a54.288,54.288,0,0,0,4.428,6.118c-.033-.9.011-1.809-.11-2.7a106.077,106.077,0,0,1-.255-25.727c.472-4.459.818-8.936,1.064-13.414.758-13.789-2.658-26.688-8.561-39.019a72.575,72.575,0,0,0-3.8-6.861,16.854,16.854,0,0,0-2.847-3.425,50.351,50.351,0,0,0-14.768-9.368,11.278,11.278,0,0,0-1.547-.39c.316,1.368,1.253,2.041,1.948,2.865M103.2,65.053a22.052,22.052,0,0,1,5.089,11.45c.405,2.955.637,5.937.862,8.914a76.331,76.331,0,0,0,3.381,18.69,54.8,54.8,0,0,0,6.385,13.037,11.785,11.785,0,0,0,2.537,2.7,180.991,180.991,0,0,1,16.028,14c.3.3.625.819,1.349.476a2.8,2.8,0,0,0-.076-.933c-3.275-7.482-4.674-15.462-6.339-23.384-1.176-5.6-2.293-11.236-3.92-16.714A56.78,56.78,0,0,0,108.48,64.245,8.553,8.553,0,0,0,101,62.48c.936,1.1,1.569,1.832,2.2,2.573m96.073,81.916c2.3,9.034,1.769,18.071-.3,27.016-1.46,6.3-3.334,12.514-5.147,18.73-1.291,4.423-2.823,8.776-4.181,13.18a63.656,63.656,0,0,0-2.4,13.209,38.091,38.091,0,0,0,1.821,14.357c.084.285.37.51.829,1.118.216-.933.405-1.489.47-2.06a58.927,58.927,0,0,1,6.649-20.89c3.476-6.623,6.668-13.379,9.488-20.312a62.468,62.468,0,0,0,4.541-28.888,34.32,34.32,0,0,0-1.61-8.03,7.809,7.809,0,0,0-3.136-4.461c-1.772-1.153-3.414-2.5-5.14-3.73a15.379,15.379,0,0,0-1.845-.942,7.5,7.5,0,0,0-.037,1.7M56.344,139.121a60.787,60.787,0,0,0,5.754,4.137,88.472,88.472,0,0,0,29.758,10.693c4.164.74,8.4,1.08,12.6,1.6,4.7.581,9.408,1.076,14.092,1.754a95.949,95.949,0,0,1,44.232,17.976,7.607,7.607,0,0,0,.957.574c.088.047.223.008.383.01.62-.576.091-1.139-.156-1.6-1.182-2.194-2.436-4.348-3.654-6.522a15.705,15.705,0,0,0-4.015-4.381,63.851,63.851,0,0,0-22.064-11.548,113.023,113.023,0,0,0-30.543-4.9c-5.229-.113-10.461-.193-15.686-.416A75.962,75.962,0,0,1,71.4,144.034a56.08,56.08,0,0,1-13.48-5.469c-.728-.419-1.5-.758-3.007-1.508a10.961,10.961,0,0,0,1.434,2.064M208.1,191.292c-2.435,6-5.313,11.82-8.037,17.7-1.31,2.827-2.829,5.558-4.075,8.412a52.692,52.692,0,0,0-4.4,23.683c.021.47.152.938.338,2.024a12.734,12.734,0,0,0,1.02-1.915,56.168,56.168,0,0,1,7.52-15.809c1.777-2.709,3.562-5.416,5.266-8.172a86.146,86.146,0,0,0,12.986-45.432,51.429,51.429,0,0,0-1.007-10.022,7.614,7.614,0,0,0-3.414-5.524c-.922-.567-1.751-1.284-3.3-2.434a59.717,59.717,0,0,1-2.905,37.487m-9.8,88.532a51,51,0,0,1,8.883-17.164c2.931-3.712,6.019-7.3,9.076-10.915a123.376,123.376,0,0,0,10.184-13.364A78.573,78.573,0,0,0,238.631,186.3a7.282,7.282,0,0,0-1.718-4.625c-.936.161-.75.747-.7,1.194,1.708,15.74-2.049,30.2-10.439,43.478-2.788,4.415-5.95,8.6-9.073,12.8a158.151,158.151,0,0,0-12.65,19.391,70.045,70.045,0,0,0-7.2,21.141,5.1,5.1,0,0,0,.288,3.345c.506-1.391.881-2.278,1.155-3.195M170.845,177.862c-.415-7.664.938-15.138,2.332-22.616.8-4.285,1.588-8.576,2.2-12.891a57.311,57.311,0,0,0-1.333-21.5,117.411,117.411,0,0,0-8.247-23.2,39.49,39.49,0,0,0-5.3-8.612,5.171,5.171,0,0,0,.517,2.711c1.536,4.474,3.2,8.909,4.581,13.433a62.5,62.5,0,0,1,2.521,20.679c-.192,5.1-.5,10.209-1.084,15.275a112.174,112.174,0,0,0,1.5,33.833,17.077,17.077,0,0,0,.694,2.512,23.227,23.227,0,0,0,1.151,2.239,10.018,10.018,0,0,0,.47-1.864m22.889,72.322c2.2-7.81,6.372-14.587,11.036-21.1,1.815-2.534,3.727-5,5.544-7.527A83.562,83.562,0,0,0,226.4,174.874c.077-2.114-.019-4.236-.119-6.351a3.1,3.1,0,0,0-.565-1.713,26.924,26.924,0,0,0-2.584-2.694c-1.066-1.008-2.19-1.955-3.286-2.927-.938.753-.477,1.514-.371,2.129,1.412,8.106.742,16.16-.7,24.167a85.608,85.608,0,0,1-11.941,30.857c-2.2,3.479-4.454,6.919-6.66,10.392a51.915,51.915,0,0,0-7.366,20.24,20.528,20.528,0,0,0-.114,2.125l.553.083a6.166,6.166,0,0,0,.485-1M92.077,63.308c3.963,4.789,5.572,10.472,6.27,16.5.47,4.075.878,8.157,1.384,12.228a49.05,49.05,0,0,0,3.02,12.662,9.085,9.085,0,0,0,3.942,4.768c2.152,1.234,4.141,2.752,6.215,4.127.589.39,1.222.714,1.823,1.062.663-.822.124-1.342-.128-1.81-4.252-7.937-6.083-16.513-6.8-25.4-.29-3.591-.582-7.187-1.031-10.759a21.5,21.5,0,0,0-7.031-13.226,4.741,4.741,0,0,0-3.673-1.445c-1.35.066-2.7.048-4.386.073a5.571,5.571,0,0,0,.4,1.22m2.883,36.62A42.709,42.709,0,0,1,89.818,88.4c-.842-3.246-1.8-6.475-2.931-9.631-1.907-5.317-4.557-10.191-8.946-13.961a8.051,8.051,0,0,0-6.4-2.336c-2.686.284-5.409.214-8,.3-.448.936.19,1.06.546,1.284,1.262.791,2.58,1.5,3.822,2.318a28.35,28.35,0,0,1,10.579,12.7q2.592,5.986,5.357,11.9a23.324,23.324,0,0,0,10.77,11.456,7.89,7.89,0,0,0,1.036.411c.1.032.23-.04.867-.175-.594-1.044-1.053-1.9-1.559-2.732M78.841,63.657C84.234,68.3,87.2,74.368,89.21,81.048c1.537,5.12,2.656,10.413,5.355,15.107,1.485,2.581,3.218,5.022,4.877,7.5a9.423,9.423,0,0,0,1.517,1.281c-.651-2.518-1.3-4.381-1.6-6.3-.819-5.411-1.5-10.843-2.217-16.269A51.028,51.028,0,0,0,94.973,71.4a23.878,23.878,0,0,0-4.481-7.7,4.039,4.039,0,0,0-3.549-1.626c-2.816.21-5.664-.017-8.9.451a8.812,8.812,0,0,0,.8,1.127M85.008,96a73.638,73.638,0,0,1-6.878-14.03c-3.315-9.2-10.026-14.875-18.748-18.551-2.147-.9-3.792-.911-7.1-.135.654.455,1.12.809,1.613,1.117a33.659,33.659,0,0,1,12.1,13.372c1.44,2.748,3,5.435,4.616,8.086a30.5,30.5,0,0,0,6.9,7.755,20.7,20.7,0,0,0,8.044,3.777A8.7,8.7,0,0,0,85.008,96M66.094,94.157c-1.6.255-3.2.494-4.78.822a40,40,0,0,1-29.157-4.825c-2.679-1.562-5.131-3.515-7.69-5.281-.687-.473-1.389-.922-2.271-1.507-.193.751-.306,1.2-.426,1.655a4.942,4.942,0,0,0,1.457,5.073,31.347,31.347,0,0,0,8.884,6.734,41.283,41.283,0,0,0,25.073,3.833c2.944-.48,5.83-1.3,8.757-1.892,2.558-.517,5.138-.927,7.705-1.4a9.579,9.579,0,0,0,1.292-.487C72.092,95,69.395,93.63,66.094,94.157m-7.977-5.469a6.685,6.685,0,0,0-1.678-.791,13.607,13.607,0,0,0-2.937-.218,41.919,41.919,0,0,1-23.756-6.421A64.82,64.82,0,0,1,24.108,77c-.672-.521-1.295-1.1-2.288-1.958-.124,3.013-.294,5.5,2.01,7.44,8.1,6.827,17.091,11.461,27.923,11.879,4.4.17,8.618-.72,13.732-1.9-2.982-1.528-5.173-2.652-7.369-3.771m-8.39-4.6A114.049,114.049,0,0,1,32.25,71.395,11.735,11.735,0,0,0,27.1,68.569a24.384,24.384,0,0,1-8.046-3.818,3.929,3.929,0,0,0-2.565-1.062c1.3,2.78,2.4,5.418,4.19,7.584,7.625,9.212,17.536,14.015,29.415,14.85a12.127,12.127,0,0,0,2.168-.325c-1.128-.765-1.808-1.281-2.537-1.713m22.634,7.625c-.134-.615-.106-.972-.27-1.176A70.009,70.009,0,0,1,64.665,78.46a33.6,33.6,0,0,0-14.86-14.769,8.816,8.816,0,0,0-6.368-1.023c1.059,1.409,2.4,2.072,3.415,3.06,1.162,1.127,2.392,2.188,3.493,3.373a33.82,33.82,0,0,1,2.817,3.482A30.7,30.7,0,0,1,55.506,76.4a37.081,37.081,0,0,1,1.889,4.469c.492,1.4.808,2.861,1.24,4.439a111.635,111.635,0,0,0,13.727,6.4M4.422,20.01c-.907.161-.825.867-.863,1.335-.626,7.344-.58,14.642,1.361,21.838C7.8,53.852,14.5,61.234,24.32,65.972a6.589,6.589,0,0,0,1.337.33C12.772,53.336,7.065,37.424,4.422,20.01m35.69,51.375A40.164,40.164,0,0,0,29.4,58.123c-5.877-4.531-9.959-10.4-13.4-16.774-2-3.713-3.589-7.649-5.357-11.487a13.018,13.018,0,0,0-1.2-2.271C10.1,34.37,12.794,40.53,15.6,46.559c3.284,7.054,8.24,12.983,13.98,18.253,6.482,5.948,8.616,7.672,11.286,8.7a16.468,16.468,0,0,0-.757-2.122m-3.712-8.3a35.631,35.631,0,0,1,6.409,10.847,7.587,7.587,0,0,0,3.422,4.2c2.563,1.521,5.087,3.107,7.65,4.626a22.867,22.867,0,0,0,2.374,1.029A15.516,15.516,0,0,0,55.883,81a31.167,31.167,0,0,0-5.8-9.907A42.916,42.916,0,0,0,39.6,62.239c-1.75-1.073-1.761-1.055-4.48-1.288-.113,1.033.764,1.513,1.282,2.136" transform="translate(0 0)" fill="#8ab8a8"/>
      </g>
    </g>
  </g>
</svg>