<svg xmlns="http://www.w3.org/2000/svg" viewBox="0 0 453.06 164.37"><defs><style>.cls-1{fill:#8ab8a8;}</style></defs><g id="Camada_2" data-name="Camada 2"><g id="Camada_1-2" data-name="Camada 1"><path class="cls-1" d="M0,69.28c.31-.64.61-1.29.86-2,1.73-4.44,2.09-9.24,2.28-14,.21-5.27.25-10.55,1.53-15.7a40.94,40.94,0,0,1,7.74-15.59c.55-.69-.49-1.57-1-.88A42.75,42.75,0,0,0,3.93,35.26a57.59,57.59,0,0,0-2,15.12C1.72,55.51,1.65,60.8,0,65.73Z"/><path class="cls-1" d="M451.63,26.41c-.75-.79-1.84.51-1.1,1.3C453,30.3,449.94,31.79,448,33a17.33,17.33,0,0,0-4.4,4,60.9,60.9,0,0,0-6.29,10.42c-2,3.92-4.12,7.95-7.25,11.13a20.16,20.16,0,0,1-12.72,6c-3.43.36-6.89.16-10.32.56l0,0c-7.36-8-14.64-16.19-22.13-24.12-6.41-6.79-13.21-13.36-21.14-18.36a56.9,56.9,0,0,0-10-5.06q11.49,1,23,2.17a.76.76,0,0,0,.2.2,171.15,171.15,0,0,1,45.29,41.46c.53.7,1.66-.07,1.13-.77A173,173,0,0,0,379.57,20q6.68.72,13.34,1.53a.66.66,0,0,0,.95.22l.14-.09c3,.36,6,.74,8.95,1.12a71.25,71.25,0,0,1,33.57,23.34c.54.68,1.67-.09,1.12-.77a72.7,72.7,0,0,0-28.75-21.79q13.42,1.8,26.82,3.9,6.23,1,12.43,2a.68.68,0,0,0,.25-1.34q-13.84-2.29-27.72-4.29a95.83,95.83,0,0,1,19.91-4.85c.87-.11.77-1.47-.1-1.35a97.32,97.32,0,0,0-22.08,5.58.62.62,0,0,0-.31.26q-7.43-1-14.87-2l-1.55-.5a.53.53,0,0,0-.64.22c-1.74-.23-3.49-.45-5.23-.66A122.8,122.8,0,0,1,426.58,6.3c.84-.25.39-1.54-.45-1.29a124.49,124.49,0,0,0-32.46,15.2q-11.4-1.38-22.82-2.53A106.54,106.54,0,0,1,407.27,0h-4.84a107.51,107.51,0,0,0-33.59,17.48h0q-9.25-.9-18.54-1.64A126,126,0,0,1,369.64,0h-2.41a127.43,127.43,0,0,0-18.71,15.69l-2.14-.17c-3.41-.26-6.83-.49-10.25-.71A126.56,126.56,0,0,1,353,0h-2.3a128.15,128.15,0,0,0-16.3,14.69c-3.75-.24-7.49-.44-11.24-.63C327.28,9.3,331.54,4.58,335.94,0h-1.89c-4.34,4.56-8.54,9.24-12.66,14q-7.67-.37-15.33-.61c3.72-4.46,7.48-8.94,11.32-13.35h-1.8c-3.82,4.4-7.56,8.86-11.26,13.3h0q-6.79-.2-13.6-.29,4.8-6.72,10.14-13H299q-5.25,6.29-10,13c-3,0-6-.06-9-.06q3.76-6.61,8-12.93h-1.64q-4.2,6.32-7.95,12.94c-2.29,0-4.58,0-6.87,0a.6.6,0,0,0-.49,0c-2.46,0-4.92.08-7.38.13,2.66-4.37,5.34-8.75,8.07-13.1h-1.59c-2.74,4.36-5.42,8.75-8.08,13.13q-6.11.13-12.19.37c-.21-.11-.41-.24-.62-.34a.62.62,0,0,0-.9.39l-1.67.07a25.05,25.05,0,0,0,6.4-10.17c.37-1.14.68-2.29,1-3.45h-1.42a32.81,32.81,0,0,1-2.41,6.69,23.56,23.56,0,0,1-5.66,7h-.23c-6.82.31-13.62.75-20.43,1.25,3.07-2.94,5-6.9,6.6-10.85L232.28,0h-1.49c-2.17,5.45-4.25,11.49-9,15.12-5.3.41-10.59.86-15.88,1.39,5.58-3.87,8.53-10,10.49-16.51H215c-.05.17-.09.34-.14.5-2,6.61-5.77,13.23-12.22,16.37q-9.1,1-18.19,2.18c5.61-5,8.66-11.89,10.88-19H194c-.33,1.06-.67,2.11-1,3.16-2.26,6.24-5.67,12.21-11.05,16.22q-6,.84-12,1.78l-.16-.08a.65.65,0,0,0-.79.22l-1.51.24a28.41,28.41,0,0,0,8.34-12.21A41.83,41.83,0,0,0,177.59,0h-1.34c-.14,1.19-.29,2.37-.47,3.56A27.71,27.71,0,0,1,164.67,22q-7.2,1.2-14.38,2.57C156.18,17.8,157.4,8.79,158.52,0h-1.33c-.25,1.87-.49,3.74-.78,5.6-1.1,7.08-3.17,14.24-8.37,19.41-1.78.35-3.56.67-5.33,1q-4.58.93-9.14,1.94c3-2.8,4.72-6.62,5.89-10.56C141.15,11.75,142,5.8,143.16,0h-1.32c-.83,3.92-1.59,7.8-2.35,11.57-1.3,6.33-3.18,13.39-9,17.08q-5.25,1.19-10.47,2.46l-.43-.05a.53.53,0,0,0-.53.29l-.82.2A27.43,27.43,0,0,0,124,17c.58-5.75.86-11.39,2-17h-1.38a78.1,78.1,0,0,0-1.59,11.35c-.25,3.77-.36,7.59-1.47,11.23A24.77,24.77,0,0,1,116,32.13q-6.3,1.59-12.57,3.32c7.21-9.28,4.79-22.37,4.81-33.38,0-.7,0-1.38.05-2.07h-1.36c-.18,5.32.37,10.65.39,16,0,7.14-1.22,14.76-6.24,20.14l-.07,0c-.21-.1-.42-.21-.64-.3a.7.7,0,0,0-1,.75Q90.5,39.12,81.68,42A51.84,51.84,0,0,0,96.49,12.43c.57-4.13.28-8.29.2-12.43H95.47c.06,2.1.15,4.21.13,6.31a49.48,49.48,0,0,1-4.29,19.35A50.05,50.05,0,0,1,78.62,43q-5.18,1.7-10.33,3.51a.49.49,0,0,0-.51.19l-3,1.07A105.57,105.57,0,0,0,78,15.37C79.12,10.45,79.76,5.2,80.64,0H79.36c-.55,3.23-1,6.48-1.6,9.71a107.86,107.86,0,0,1-5.14,19,104.19,104.19,0,0,1-9.91,19.74q-5.57,2-11.09,4.2A43.23,43.23,0,0,0,57.24,40.3C59,34.52,60.73,28.67,62,22.74,63.55,15.17,64.15,7.42,66,0H64.49c-1.42,5.73-2,11.62-2.94,17.45a151,151,0,0,1-4.23,17.8c-1.87,6.48-3.72,13.19-8.19,18.42l-2.89,1.15q-4.79,1.93-9.5,4c6.9-6.84,10.14-16.48,12.07-25.9,1.21-5.88,2-11.85,3.34-17.71A110.12,110.12,0,0,1,56.75,0H55.3C54,3.39,52.89,6.84,52,10.35,48.88,21.74,48.39,33.84,44,44.87c-2.35,6-5.84,11.46-11,15.38a.76.76,0,0,0-.21.27q-4.73,2.1-9.41,4.29A47.13,47.13,0,0,0,33.64,40.3c.64-5.77.47-11.6,1.06-17.37A48.2,48.2,0,0,1,39,7.19,48.4,48.4,0,0,1,43.25,0H41.61a48.54,48.54,0,0,0-7.47,17.5C33,23,33,28.65,32.73,34.24a54.8,54.8,0,0,1-3.19,17.4,46.15,46.15,0,0,1-9.16,14.61q-6.82,3.23-13.59,6.59c2.59-2.92,5.09-5.92,7.37-9.06,2.6-3.61,4.83-7.61,5.34-12.09.54-4.74-.31-9.58-.25-14.34a55.08,55.08,0,0,1,2.11-15A37.79,37.79,0,0,1,29.65,7.37c.6-.64-.45-1.52-1-.87C22.12,13.55,19,22.88,18.13,32.31a110.29,110.29,0,0,0,.11,14.43,23.34,23.34,0,0,1-4,14.56A107.74,107.74,0,0,1,3.47,74.49L0,76.23v2.16C13.47,77.2,24.26,89.79,31.29,99.7a242.13,242.13,0,0,1,13.05,21.41c4.13,7.3,8.24,14.7,13.61,21.18a50.54,50.54,0,0,0,14.27,12.2c-8-1.5-15.89-3-23.75-4.87a26.24,26.24,0,0,1-4.84-4.41c-2.37-2.65-4.61-5.42-6.79-8.23-4.48-5.78-8.66-11.77-13-17.66C17,110,9.55,100,0,93.1v1.66A80,80,0,0,1,9.79,104c9.71,10.54,17.35,22.74,26.13,34,2.26,2.91,4.59,5.78,7.08,8.51.73.81,1.5,1.59,2.3,2.32-3.38-.83-6.75-1.71-10.09-2.68a.72.72,0,0,0-.32-.75c-13-8.36-23.67-19.63-34.89-30.2v1.87c6.35,6,12.52,12.22,19.1,18a132.39,132.39,0,0,0,13.09,10.16c-3.54-1.1-7.07-2.27-10.55-3.61-6-2.31-12-4.8-17.95-7.39A41.64,41.64,0,0,1,0,132v2.36c3.32,1.46,6.63,2.91,10,4.34a224.61,224.61,0,0,0,25.89,9.49c4.33,1.26,8.71,2.35,13.1,3.35a13.72,13.72,0,0,0,2,.92.68.68,0,0,0,.84-.3c3.87.85,7.74,1.64,11.62,2.4,9.78,1.91,19.57,3.71,29.34,5.65,8.79,1.75,17.72,3.75,26.71,4.14a45,45,0,0,0,23.09-5.15c3.95-2,7.79-4.3,12-5.85a35.35,35.35,0,0,1,13-1.85c2,0,4,.1,6,.14h.14c6,.1,12.05-.14,17.61-2.9,4.3-2.13,8-5.23,11.76-8.12,3.62-2.76,7.44-5.59,12.12-6,4.26-.39,8.44,1.15,12.61,1.82a23.07,23.07,0,0,0,11.1-.7c7.82-2.59,14.08-8.24,22.14-10.37,8.86-2.33,18.15-2,27.17-3.38,2.06-.31,4.1-.69,6.13-1.12h0a113.05,113.05,0,0,0,19.78-6.18c9.08-3.74,17.85-8.22,26.67-12.52s17.61-8.62,26.45-12.84c8.57-4.1,17-8.3,24.47-14.24,3.85-3.06,7.75-6.49,12.61-7.77,4.18-1.1,8.56-.64,12.83-1,8.56-.8,14.6-5.68,18.92-12.92,2.24-3.75,4-7.76,6.27-11.49a27.92,27.92,0,0,1,4.28-5.62c1.57-1.5,3.76-2.08,5.24-3.58C453.67,30.77,453.33,28.21,451.63,26.41ZM129.05,162.15c-8.54,1.37-17.2-.12-25.61-1.64-8.61-1.55-17.18-3.33-25.78-5C61.85,149.48,53.19,134,45.3,120.05a228.22,228.22,0,0,0-13.66-22.2c-4.13-5.68-8.77-11.22-14.53-15.31C12.55,79.29,7.23,77,1.66,77l1.18-.6a.64.64,0,0,0,.84-.12c.18-.18.35-.38.52-.56q5.8-2.92,11.63-5.78a.64.64,0,0,0,.67.46c8.09-.4,14.91,4.8,19.61,10.93,5.28,6.88,9.17,14.87,13.13,22.55,7.69,14.93,15.41,30.44,28.18,41.76,7,6.16,15.24,10.45,23.65,14.27a.68.68,0,0,0,.58-1.24c-7.91-3.59-15.73-7.57-22.39-13.24a85.39,85.39,0,0,1-16.59-19.88c-4.8-7.59-8.8-15.64-12.92-23.61-4-7.65-7.85-15.67-13.3-22.38C31.79,73.81,25.27,69.17,17.71,69l1.92-.93a.7.7,0,0,0,.94,0l.68-.73q5.91-2.82,11.89-5.47a.62.62,0,0,0,.47.17c9.52-.47,16.94,8.39,21.71,15.54,5.75,8.62,9.52,18.34,14,27.65a146,146,0,0,0,15.9,25.71c6,7.81,12.84,15.12,21,20.69a55.9,55.9,0,0,0,26,9.85C131.21,161.73,130.14,162,129.05,162.15Zm4.15-1c.25-.38.17-1-.4-1-19.73-1.72-35.36-15.36-46.87-30.51A147.26,147.26,0,0,1,69.74,103c-4.33-9.24-8.16-18.84-14-27.26-4.63-6.67-11.42-14.24-20-15q6.83-3,13.73-5.7a.63.63,0,0,0,.2.1c8.79,2.48,15.43,9.25,20.68,16.42,5.85,8,10.51,16.75,15.08,25.51,8.92,17.1,18,34.25,33.52,46.31a84.44,84.44,0,0,0,24.72,13.25A63.29,63.29,0,0,1,133.2,161.17Zm19-8.74c-2.35,1-4.61,2.15-6.85,3.32a84.56,84.56,0,0,1-43.78-33.12C90.2,106.1,83.32,86.94,71.46,70.76c-5.19-7.08-11.65-13.64-20.08-16.52q8.41-3.32,17-6.33c9,3,16.28,10.91,21.69,18.39,5.86,8.08,10.24,17.08,14.35,26.14,7.67,16.88,15,34.84,29.39,47.21a47.71,47.71,0,0,0,23.15,11.27A29,29,0,0,0,152.15,152.43Zm6.21-1.82a.64.64,0,0,0-.48-.9c-17.62-2.55-30.68-16.34-39.25-31C108.57,101.43,103,81.81,91.17,65.53,85.86,58.2,79,50.65,70.35,47.2c2.58-.9,5.18-1.78,7.78-2.64a.54.54,0,0,0,.75,0l.42-.38,5.61-1.8a1,1,0,0,0,.27.14c16.92,4.92,28.43,19.87,36.17,34.91,9.18,17.86,15,37.4,27.93,53.16a96.64,96.64,0,0,0,21.48,19.33A61.66,61.66,0,0,0,158.36,150.61Zm17.2-.64-2.25,0a94.41,94.41,0,0,1-22.51-19.67c-6.49-7.81-11.4-16.65-15.66-25.84-7.79-16.85-14-34.81-26.92-48.64A51.59,51.59,0,0,0,87,41.7q6.84-2.13,13.72-4.09a.68.68,0,0,0,.48.1,70.64,70.64,0,0,1,23,16.56A72.91,72.91,0,0,1,139.4,80.38c3.31,9.67,5.33,19.74,9,29.29A63,63,0,0,0,155,122.61a85.5,85.5,0,0,0,10.67,12.14c6,6,12.83,12.21,21.32,13.87A38,38,0,0,1,175.56,150Zm24.81-9.48c-3.4,2.64-6.84,5.38-10.79,7.14-8.86-.79-15.89-6.86-22-12.85a89.9,89.9,0,0,1-11.18-12.46,61.06,61.06,0,0,1-6.94-13.64c-3.53-9.39-5.54-19.26-8.78-28.75a74.11,74.11,0,0,0-14.32-25.28A72.11,72.11,0,0,0,102.93,37q6.33-1.76,12.7-3.38a.68.68,0,0,0,.91-.07l.19-.21,3.46-.86c4.71.43,8.84,3.42,12.47,6.23,4,3.12,7.81,6.81,10.18,11.39s3.07,10,4.44,14.91,3,10,4.68,14.9c3.37,9.9,6.52,20.19,11.53,29.41a61.54,61.54,0,0,0,16.75,19.42,62.75,62.75,0,0,0,21.59,10.62Zm33.15-5.42c-4.26.3-8.41-1-12.54-1.76a18.87,18.87,0,0,0-10.24.54,29.67,29.67,0,0,0-7.52,4.44A61.24,61.24,0,0,1,164.31,108c-5.06-9.52-8.27-20.17-11.69-30.36-1.66-4.93-3.22-9.9-4.56-14.93s-2.1-10-4.7-14.43c-2.77-4.73-6.94-8.51-11.33-11.71a29.93,29.93,0,0,0-8.76-4.81q3.54-.86,7.1-1.66l.28-.06a.65.65,0,0,0,.44-.09h0c2.8-.64,5.62-1.23,8.44-1.82a.64.64,0,0,0,.45.35c10,2.15,16.57,11.06,20.3,20,4.19,10.08,6.19,20.87,11.12,30.67a88.53,88.53,0,0,0,42.43,40.44c10,4.61,20.11,9.12,30.9,11.52C241.25,133.06,237.56,134.78,233.52,135.07Zm33.32-12.63a49.07,49.07,0,0,0-11.67,3,75.89,75.89,0,0,0-8.68,4.61c-10.26-2.08-19.86-6.15-29.35-10.5s-18.4-9.49-26.16-16.69a85.82,85.82,0,0,1-18.66-25c-4.8-9.76-6.73-20.52-11-30.48-3.7-8.67-10-17.07-19.32-19.88,2.05-.42,4.1-.81,6.15-1.21a.7.7,0,0,0,.31.16c10.55,2.17,18.08,11.94,23.19,20.74,5.6,9.64,9.38,20.26,15.53,29.6,11.56,17.58,30.34,28.19,49.51,35.63,9.93,3.85,20.11,7,30.36,9.92Zm3.64-.47c-10.31-2.84-20.56-6-30.58-9.71s-19.62-8-28.48-13.8a79.38,79.38,0,0,1-22.75-21.82c-6.3-9.38-10.11-20.12-15.73-29.89C168,38.2,160.87,28.92,151.07,25.81q6.72-1.27,13.48-2.41a.59.59,0,0,0,.63-.06l.07-.06,4.45-.72A66.69,66.69,0,0,1,194.58,41,116.34,116.34,0,0,1,204,55,99.48,99.48,0,0,0,214.3,69a186.73,186.73,0,0,0,48.19,38.3,164.6,164.6,0,0,0,28.32,12.47C284.07,120.92,277.25,121.2,270.48,122Zm23.11-2.71a171.85,171.85,0,0,1-53.76-28.61,187.9,187.9,0,0,1-23.42-21.33,94.24,94.24,0,0,1-10.56-14,141.91,141.91,0,0,0-9.22-13.95,67.9,67.9,0,0,0-24.46-19.16c3-.46,5.92-.92,8.88-1.33A.64.64,0,0,0,182,21l.48-.36q6.09-.84,12.18-1.56a.45.45,0,0,0,.11,0c9.29.74,16.63,7.33,21.72,14.68,6.34,9.16,9.77,20,16.51,28.94s16.08,15.34,24.86,21.94,17.7,13,27.44,18a83.2,83.2,0,0,0,30.32,9.44A116.4,116.4,0,0,1,293.59,119.26Zm25.27-8.52-1.22.54a.52.52,0,0,0-.47-.31c-21.53-1.58-40.1-13.59-56.93-26.15-9-6.73-18.8-13.34-25.76-22.31s-10.39-19.94-16.75-29.24C213.25,26.74,207,20.76,199.31,18.6l3.33-.36a.58.58,0,0,0,.4,0h0q8.73-.92,17.46-1.62a.68.68,0,0,0,1,.37c.24-.15.45-.33.68-.49l2.24-.16a.7.7,0,0,0,.24.15c9.78,3.61,16.32,12.1,21.5,20.76,2.9,4.84,5.51,9.85,8.54,14.62a100.1,100.1,0,0,0,10.17,13.31c12.15,13.54,27.34,24.58,44.43,31a91.26,91.26,0,0,0,28.42,5.8C331.48,104.94,325.2,107.91,318.86,110.74Zm76-40.36c-3.77,2.81-7.31,5.86-11.29,8.37A134.35,134.35,0,0,1,370.23,86c-10.36,5-20.67,10.2-31,15.24a.69.69,0,0,0-.68-.61c-18.32-.52-36-7.16-51.07-17.44a119.11,119.11,0,0,1-20.67-18,102.88,102.88,0,0,1-10.39-13.32c-3.08-4.73-5.7-9.74-8.57-14.6-5-8.51-11.29-17-20.46-21.21l4.2-.3q6.16-.39,12.33-.67a.59.59,0,0,0,.94.25l.37-.31c1.48-.07,3-.11,4.43-.17,8.25,4.59,13.29,12.9,18.26,20.64A102.35,102.35,0,0,0,285,56.3c13.14,11.93,29.39,20.12,46.37,25a143.21,143.21,0,0,0,14.75,3.4c5.66,1,11.37,1.82,16.79,3.81.82.3,1.41-.93.58-1.23-8.84-3.25-18.45-3.83-27.55-6.15a129.44,129.44,0,0,1-26-9.6,107.75,107.75,0,0,1-22.41-14.84,97.14,97.14,0,0,1-17.89-21c-4.95-7.65-9.83-15.88-17.55-20.94,6.31-.22,12.63-.39,18.94-.45,5.29,7.84,12.54,14,20,19.77q9.84,7.66,20.35,14.41a214,214,0,0,0,45.54,22.31,174.73,174.73,0,0,0,27,7,.68.68,0,0,0,.25-1.34c-32.86-5.69-63.19-21.27-89.57-41.31-8-6.09-16.07-12.51-21.89-20.82q7.29-.06,14.59,0a1,1,0,0,0,.09.13c22.92,23.77,53.65,37.45,84.33,48.2,7.85,2.75,16.07,6.27,24.46,6.81C395.72,69.76,395.3,70.07,394.88,70.38Zm2.62-1.81a.69.69,0,0,0-.6-.39c-8.06-.32-15.91-3.71-23.43-6.33s-15.21-5.45-22.68-8.53c-14.87-6.13-29.35-13.4-42.49-22.73a142.34,142.34,0,0,1-18.88-16,.62.62,0,0,0,.3-.22l0-.05q11.12.13,22.22.56a.54.54,0,0,0,.14.31,82.76,82.76,0,0,0,14.62,13.49c5.57,4,11.64,7.28,17.55,10.73L363,50.36a122,122,0,0,0,17.78,8.91c6.33,2.43,12.87,4.53,18.63,8.2C398.76,67.81,398.12,68.18,397.5,68.57Zm3.33-1.81c-4.92-3.25-10.42-5.35-15.93-7.4a117.44,117.44,0,0,1-17.52-8C361.21,47.81,355.1,44.18,349,40.6s-12.51-7-18.5-11A81.25,81.25,0,0,1,313.71,15c2.27.09,4.54.17,6.81.28a.7.7,0,0,0,1.2.39l.27-.32q5.63.29,11.25.63a.67.67,0,0,0,.2.51c7.8,8,17.18,14.29,26.14,20.88S377.67,49.88,387,55.79l16,10.15C402.24,66.18,401.53,66.45,400.83,66.76Zm4.54-1.45c-.27,0-.52.12-.78.18a.76.76,0,0,0-.25-.29C394.71,59.09,385,53,375.45,46.85c-9.25-6-18.06-12.7-26.87-19.29A124.23,124.23,0,0,1,335,16.08q6.3.41,12.58.89a.73.73,0,0,0,1.22.38c.07-.09.16-.16.23-.24a.75.75,0,0,0,.42.33c11.61,3.41,21.22,11.07,29.69,19.46,9.16,9.08,17.64,18.87,26.33,28.4Z"/></g></g></svg>